<mxfile host="app.diagrams.net" agent="Mozilla/5.0 (Windows NT 10.0; Win64; x64) AppleWebKit/537.36 (KHTML, like Gecko) Chrome/128.0.0.0 Safari/537.36 OPR/114.0.0.0 (Edition MSI)" version="24.8.4">
  <diagram name="Database Diagram" id="02fm0IP3fxHfIRU__0jN">
    <mxGraphModel dx="93989" dy="65083" grid="1" gridSize="10" guides="1" tooltips="1" connect="1" arrows="1" fold="1" page="1" pageScale="1" pageWidth="827" pageHeight="1169" math="0" shadow="0">
      <root>
        <mxCell id="0" />
        <mxCell id="1" parent="0" />
        <mxCell id="WyEUspupjIXbNaA2x39Q-1" value="Organizations" style="shape=swimlane;childLayout=stackLayout;horizontal=1;startSize=20;horizontalStack=0;resizeParent=1;resizeLast=0;" vertex="1" parent="1">
          <mxGeometry x="180" y="320" width="180" height="120" as="geometry" />
        </mxCell>
        <mxCell id="WyEUspupjIXbNaA2x39Q-2" value="Org_ID : INT (PK)" style="text;align=left;verticalAlign=top;" vertex="1" parent="WyEUspupjIXbNaA2x39Q-1">
          <mxGeometry y="20" width="180" height="20" as="geometry" />
        </mxCell>
        <mxCell id="WyEUspupjIXbNaA2x39Q-3" value="Name : NVARCHAR(255)" style="text;align=left;verticalAlign=top;" vertex="1" parent="WyEUspupjIXbNaA2x39Q-1">
          <mxGeometry y="40" width="180" height="20" as="geometry" />
        </mxCell>
        <mxCell id="WyEUspupjIXbNaA2x39Q-4" value="Comment : NVARCHAR(MAX)" style="text;align=left;verticalAlign=top;" vertex="1" parent="WyEUspupjIXbNaA2x39Q-1">
          <mxGeometry y="60" width="180" height="20" as="geometry" />
        </mxCell>
        <mxCell id="WyEUspupjIXbNaA2x39Q-5" value="Departments" style="shape=swimlane;childLayout=stackLayout;horizontal=1;startSize=20;horizontalStack=0;resizeParent=1;resizeLast=0;" vertex="1" parent="1">
          <mxGeometry x="440" y="280" width="180" height="160" as="geometry" />
        </mxCell>
        <mxCell id="WyEUspupjIXbNaA2x39Q-6" value="Dept_ID : INT (PK)" style="text;align=left;verticalAlign=top;" vertex="1" parent="WyEUspupjIXbNaA2x39Q-5">
          <mxGeometry y="20" width="180" height="20" as="geometry" />
        </mxCell>
        <mxCell id="WyEUspupjIXbNaA2x39Q-7" value="Org_ID : INT (FK)" style="text;align=left;verticalAlign=top;" vertex="1" parent="WyEUspupjIXbNaA2x39Q-5">
          <mxGeometry y="40" width="180" height="20" as="geometry" />
        </mxCell>
        <mxCell id="WyEUspupjIXbNaA2x39Q-8" value="Name : NVARCHAR(255)" style="text;align=left;verticalAlign=top;" vertex="1" parent="WyEUspupjIXbNaA2x39Q-5">
          <mxGeometry y="60" width="180" height="20" as="geometry" />
        </mxCell>
        <mxCell id="WyEUspupjIXbNaA2x39Q-9" value="Parent_ID : INT (FK)" style="text;align=left;verticalAlign=top;" vertex="1" parent="WyEUspupjIXbNaA2x39Q-5">
          <mxGeometry y="80" width="180" height="20" as="geometry" />
        </mxCell>
        <mxCell id="WyEUspupjIXbNaA2x39Q-10" value="Comment : NVARCHAR(MAX)" style="text;align=left;verticalAlign=top;" vertex="1" parent="WyEUspupjIXbNaA2x39Q-5">
          <mxGeometry y="100" width="180" height="20" as="geometry" />
        </mxCell>
        <mxCell id="WyEUspupjIXbNaA2x39Q-11" value="Positions" style="shape=swimlane;childLayout=stackLayout;horizontal=1;startSize=20;horizontalStack=0;resizeParent=1;resizeLast=0;" vertex="1" parent="1">
          <mxGeometry x="1030" y="300" width="180" height="80" as="geometry" />
        </mxCell>
        <mxCell id="WyEUspupjIXbNaA2x39Q-12" value="Position_ID : INT (PK)" style="text;align=left;verticalAlign=top;" vertex="1" parent="WyEUspupjIXbNaA2x39Q-11">
          <mxGeometry y="20" width="180" height="20" as="geometry" />
        </mxCell>
        <mxCell id="WyEUspupjIXbNaA2x39Q-13" value="Name : NVARCHAR(255)" style="text;align=left;verticalAlign=top;" vertex="1" parent="WyEUspupjIXbNaA2x39Q-11">
          <mxGeometry y="40" width="180" height="20" as="geometry" />
        </mxCell>
        <mxCell id="WyEUspupjIXbNaA2x39Q-14" value="Status" style="shape=swimlane;childLayout=stackLayout;horizontal=1;startSize=20;horizontalStack=0;resizeParent=1;resizeLast=0;" vertex="1" parent="1">
          <mxGeometry x="490" y="30" width="180" height="80" as="geometry" />
        </mxCell>
        <mxCell id="WyEUspupjIXbNaA2x39Q-15" value="Status_ID : INT (PK)" style="text;align=left;verticalAlign=top;" vertex="1" parent="WyEUspupjIXbNaA2x39Q-14">
          <mxGeometry y="20" width="180" height="20" as="geometry" />
        </mxCell>
        <mxCell id="WyEUspupjIXbNaA2x39Q-16" value="Name : NVARCHAR(50)" style="text;align=left;verticalAlign=top;" vertex="1" parent="WyEUspupjIXbNaA2x39Q-14">
          <mxGeometry y="40" width="180" height="20" as="geometry" />
        </mxCell>
        <mxCell id="WyEUspupjIXbNaA2x39Q-17" style="edgeStyle=orthogonalEdgeStyle;rounded=0;orthogonalLoop=1;jettySize=auto;html=1;exitX=0.5;exitY=1;exitDx=0;exitDy=0;entryX=1;entryY=0.5;entryDx=0;entryDy=0;" edge="1" parent="1" source="WyEUspupjIXbNaA2x39Q-18" target="WyEUspupjIXbNaA2x39Q-37">
          <mxGeometry relative="1" as="geometry" />
        </mxCell>
        <mxCell id="WyEUspupjIXbNaA2x39Q-18" value="Employees" style="shape=swimlane;childLayout=stackLayout;horizontal=1;startSize=20;horizontalStack=0;resizeParent=1;resizeLast=0;" vertex="1" parent="1">
          <mxGeometry x="730" y="-140" width="220" height="320" as="geometry" />
        </mxCell>
        <mxCell id="WyEUspupjIXbNaA2x39Q-19" value="Employee_ID : INT (PK)" style="text;align=left;verticalAlign=top;" vertex="1" parent="WyEUspupjIXbNaA2x39Q-18">
          <mxGeometry y="20" width="220" height="20" as="geometry" />
        </mxCell>
        <mxCell id="WyEUspupjIXbNaA2x39Q-20" value="Last_Name : NVARCHAR(50)" style="text;align=left;verticalAlign=top;" vertex="1" parent="WyEUspupjIXbNaA2x39Q-18">
          <mxGeometry y="40" width="220" height="20" as="geometry" />
        </mxCell>
        <mxCell id="WyEUspupjIXbNaA2x39Q-21" value="First_Name : NVARCHAR(50)" style="text;align=left;verticalAlign=top;" vertex="1" parent="WyEUspupjIXbNaA2x39Q-18">
          <mxGeometry y="60" width="220" height="20" as="geometry" />
        </mxCell>
        <mxCell id="WyEUspupjIXbNaA2x39Q-22" value="Middle_Name : NVARCHAR(50)" style="text;align=left;verticalAlign=top;" vertex="1" parent="WyEUspupjIXbNaA2x39Q-18">
          <mxGeometry y="80" width="220" height="20" as="geometry" />
        </mxCell>
        <mxCell id="WyEUspupjIXbNaA2x39Q-23" value="Date_of_Birth : DATE" style="text;align=left;verticalAlign=top;" vertex="1" parent="WyEUspupjIXbNaA2x39Q-18">
          <mxGeometry y="100" width="220" height="20" as="geometry" />
        </mxCell>
        <mxCell id="WyEUspupjIXbNaA2x39Q-24" value="Passport_Details : NVARCHAR(20)" style="text;align=left;verticalAlign=top;" vertex="1" parent="WyEUspupjIXbNaA2x39Q-18">
          <mxGeometry y="120" width="220" height="20" as="geometry" />
        </mxCell>
        <mxCell id="WyEUspupjIXbNaA2x39Q-25" value="Passport_Issue_Date : DATE" style="text;align=left;verticalAlign=top;" vertex="1" parent="WyEUspupjIXbNaA2x39Q-18">
          <mxGeometry y="140" width="220" height="20" as="geometry" />
        </mxCell>
        <mxCell id="WyEUspupjIXbNaA2x39Q-26" value="Passport_Division_Code : NVARCHAR(10)" style="text;align=left;verticalAlign=top;" vertex="1" parent="WyEUspupjIXbNaA2x39Q-18">
          <mxGeometry y="160" width="220" height="20" as="geometry" />
        </mxCell>
        <mxCell id="WyEUspupjIXbNaA2x39Q-27" value="Passport_Issued_By : NVARCHAR(255)" style="text;align=left;verticalAlign=top;" vertex="1" parent="WyEUspupjIXbNaA2x39Q-18">
          <mxGeometry y="180" width="220" height="20" as="geometry" />
        </mxCell>
        <mxCell id="WyEUspupjIXbNaA2x39Q-28" value="Address : NVARCHAR(255)" style="text;align=left;verticalAlign=top;" vertex="1" parent="WyEUspupjIXbNaA2x39Q-18">
          <mxGeometry y="200" width="220" height="20" as="geometry" />
        </mxCell>
        <mxCell id="WyEUspupjIXbNaA2x39Q-29" value="Salary : DECIMAL(18,2)" style="text;align=left;verticalAlign=top;" vertex="1" parent="WyEUspupjIXbNaA2x39Q-18">
          <mxGeometry y="220" width="220" height="20" as="geometry" />
        </mxCell>
        <mxCell id="WyEUspupjIXbNaA2x39Q-30" value="Status_ID : INT (FK)" style="text;align=left;verticalAlign=top;" vertex="1" parent="WyEUspupjIXbNaA2x39Q-18">
          <mxGeometry y="240" width="220" height="20" as="geometry" />
        </mxCell>
        <mxCell id="WyEUspupjIXbNaA2x39Q-31" value="Files" style="shape=swimlane;childLayout=stackLayout;horizontal=1;startSize=20;horizontalStack=0;resizeParent=1;resizeLast=0;" vertex="1" parent="1">
          <mxGeometry x="1290" y="-150" width="220" height="100" as="geometry" />
        </mxCell>
        <mxCell id="WyEUspupjIXbNaA2x39Q-32" value="Scan_ID : INT (PK)" style="text;align=left;verticalAlign=top;" vertex="1" parent="WyEUspupjIXbNaA2x39Q-31">
          <mxGeometry y="20" width="220" height="20" as="geometry" />
        </mxCell>
        <mxCell id="WyEUspupjIXbNaA2x39Q-34" value="Passport_Scan : VARBINARY(MAX)" style="text;align=left;verticalAlign=top;" vertex="1" parent="WyEUspupjIXbNaA2x39Q-31">
          <mxGeometry y="40" width="220" height="20" as="geometry" />
        </mxCell>
        <mxCell id="WyEUspupjIXbNaA2x39Q-62" value="File_name: NVARCHAR(50)" style="text;align=left;verticalAlign=top;" vertex="1" parent="WyEUspupjIXbNaA2x39Q-31">
          <mxGeometry y="60" width="220" height="20" as="geometry" />
        </mxCell>
        <mxCell id="WyEUspupjIXbNaA2x39Q-63" value="File_path: NVARCHAR(50)" style="text;align=left;verticalAlign=top;" vertex="1" parent="WyEUspupjIXbNaA2x39Q-31">
          <mxGeometry y="80" width="220" height="20" as="geometry" />
        </mxCell>
        <mxCell id="WyEUspupjIXbNaA2x39Q-35" value="HR_Operations" style="shape=swimlane;childLayout=stackLayout;horizontal=1;startSize=20;horizontalStack=0;resizeParent=1;resizeLast=0;" vertex="1" parent="1">
          <mxGeometry x="720" y="250" width="220" height="160" as="geometry" />
        </mxCell>
        <mxCell id="WyEUspupjIXbNaA2x39Q-36" value="Operation_ID : INT (PK)" style="text;align=left;verticalAlign=top;" vertex="1" parent="WyEUspupjIXbNaA2x39Q-35">
          <mxGeometry y="20" width="220" height="20" as="geometry" />
        </mxCell>
        <mxCell id="WyEUspupjIXbNaA2x39Q-37" value="Employee_ID : INT (FK)" style="text;align=left;verticalAlign=top;" vertex="1" parent="WyEUspupjIXbNaA2x39Q-35">
          <mxGeometry y="40" width="220" height="20" as="geometry" />
        </mxCell>
        <mxCell id="WyEUspupjIXbNaA2x39Q-38" value="Operation_Type : NVARCHAR(50)" style="text;align=left;verticalAlign=top;" vertex="1" parent="WyEUspupjIXbNaA2x39Q-35">
          <mxGeometry y="60" width="220" height="20" as="geometry" />
        </mxCell>
        <mxCell id="WyEUspupjIXbNaA2x39Q-39" value="Dept_ID : INT (FK)" style="text;align=left;verticalAlign=top;" vertex="1" parent="WyEUspupjIXbNaA2x39Q-35">
          <mxGeometry y="80" width="220" height="20" as="geometry" />
        </mxCell>
        <mxCell id="WyEUspupjIXbNaA2x39Q-40" value="Position_ID : INT (FK)" style="text;align=left;verticalAlign=top;" vertex="1" parent="WyEUspupjIXbNaA2x39Q-35">
          <mxGeometry y="100" width="220" height="20" as="geometry" />
        </mxCell>
        <mxCell id="WyEUspupjIXbNaA2x39Q-41" value="Operation_Date : DATE" style="text;align=left;verticalAlign=top;" vertex="1" parent="WyEUspupjIXbNaA2x39Q-35">
          <mxGeometry y="120" width="220" height="20" as="geometry" />
        </mxCell>
        <mxCell id="WyEUspupjIXbNaA2x39Q-42" value="Change_History" style="shape=swimlane;childLayout=stackLayout;horizontal=1;startSize=20;horizontalStack=0;resizeParent=1;resizeLast=0;" vertex="1" parent="1">
          <mxGeometry x="150" y="100" width="220" height="120" as="geometry" />
        </mxCell>
        <mxCell id="WyEUspupjIXbNaA2x39Q-43" value="History_ID : INT (PK)" style="text;align=left;verticalAlign=top;" vertex="1" parent="WyEUspupjIXbNaA2x39Q-42">
          <mxGeometry y="20" width="220" height="20" as="geometry" />
        </mxCell>
        <mxCell id="WyEUspupjIXbNaA2x39Q-44" value="Operation_Timestamp : DATETIME" style="text;align=left;verticalAlign=top;" vertex="1" parent="WyEUspupjIXbNaA2x39Q-42">
          <mxGeometry y="40" width="220" height="20" as="geometry" />
        </mxCell>
        <mxCell id="WyEUspupjIXbNaA2x39Q-45" value="Modified_By : NVARCHAR(50)" style="text;align=left;verticalAlign=top;" vertex="1" parent="WyEUspupjIXbNaA2x39Q-42">
          <mxGeometry y="60" width="220" height="20" as="geometry" />
        </mxCell>
        <mxCell id="WyEUspupjIXbNaA2x39Q-46" value="Operation_Object : NVARCHAR(50)" style="text;align=left;verticalAlign=top;" vertex="1" parent="WyEUspupjIXbNaA2x39Q-42">
          <mxGeometry y="80" width="220" height="20" as="geometry" />
        </mxCell>
        <mxCell id="WyEUspupjIXbNaA2x39Q-47" value="Changed_Fields : NVARCHAR(MAX)" style="text;align=left;verticalAlign=top;" vertex="1" parent="WyEUspupjIXbNaA2x39Q-42">
          <mxGeometry y="100" width="220" height="20" as="geometry" />
        </mxCell>
        <mxCell id="WyEUspupjIXbNaA2x39Q-48" edge="1" parent="1" source="WyEUspupjIXbNaA2x39Q-1" target="WyEUspupjIXbNaA2x39Q-5" />
        <mxCell id="WyEUspupjIXbNaA2x39Q-49" edge="1" parent="1" source="WyEUspupjIXbNaA2x39Q-5" target="WyEUspupjIXbNaA2x39Q-5" />
        <mxCell id="WyEUspupjIXbNaA2x39Q-50" edge="1" parent="1" source="WyEUspupjIXbNaA2x39Q-14" target="WyEUspupjIXbNaA2x39Q-18" />
        <mxCell id="WyEUspupjIXbNaA2x39Q-51" edge="1" parent="1" source="WyEUspupjIXbNaA2x39Q-18" target="WyEUspupjIXbNaA2x39Q-31" />
        <mxCell id="WyEUspupjIXbNaA2x39Q-52" edge="1" parent="1" source="WyEUspupjIXbNaA2x39Q-18" target="WyEUspupjIXbNaA2x39Q-35" />
        <mxCell id="WyEUspupjIXbNaA2x39Q-53" edge="1" parent="1" source="WyEUspupjIXbNaA2x39Q-5" target="WyEUspupjIXbNaA2x39Q-35" />
        <mxCell id="WyEUspupjIXbNaA2x39Q-54" edge="1" parent="1" source="WyEUspupjIXbNaA2x39Q-11" target="WyEUspupjIXbNaA2x39Q-35" />
        <mxCell id="WyEUspupjIXbNaA2x39Q-55" style="edgeStyle=orthogonalEdgeStyle;rounded=0;orthogonalLoop=1;jettySize=auto;html=1;exitX=1;exitY=0.25;exitDx=0;exitDy=0;entryX=0;entryY=0.25;entryDx=0;entryDy=0;" edge="1" parent="1" source="WyEUspupjIXbNaA2x39Q-19" target="WyEUspupjIXbNaA2x39Q-33">
          <mxGeometry relative="1" as="geometry" />
        </mxCell>
        <mxCell id="WyEUspupjIXbNaA2x39Q-56" style="edgeStyle=orthogonalEdgeStyle;rounded=0;orthogonalLoop=1;jettySize=auto;html=1;exitX=0;exitY=0.5;exitDx=0;exitDy=0;entryX=1;entryY=0.5;entryDx=0;entryDy=0;" edge="1" parent="1" source="WyEUspupjIXbNaA2x39Q-12" target="WyEUspupjIXbNaA2x39Q-40">
          <mxGeometry relative="1" as="geometry" />
        </mxCell>
        <mxCell id="WyEUspupjIXbNaA2x39Q-57" style="edgeStyle=orthogonalEdgeStyle;rounded=0;orthogonalLoop=1;jettySize=auto;html=1;exitX=1;exitY=0.25;exitDx=0;exitDy=0;entryX=0;entryY=0.5;entryDx=0;entryDy=0;" edge="1" parent="1" source="WyEUspupjIXbNaA2x39Q-6" target="WyEUspupjIXbNaA2x39Q-39">
          <mxGeometry relative="1" as="geometry" />
        </mxCell>
        <mxCell id="WyEUspupjIXbNaA2x39Q-58" style="edgeStyle=orthogonalEdgeStyle;rounded=0;orthogonalLoop=1;jettySize=auto;html=1;exitX=1;exitY=0.75;exitDx=0;exitDy=0;entryX=0;entryY=0.5;entryDx=0;entryDy=0;" edge="1" parent="1" source="WyEUspupjIXbNaA2x39Q-15" target="WyEUspupjIXbNaA2x39Q-30">
          <mxGeometry relative="1" as="geometry" />
        </mxCell>
        <mxCell id="WyEUspupjIXbNaA2x39Q-59" style="edgeStyle=orthogonalEdgeStyle;rounded=0;orthogonalLoop=1;jettySize=auto;html=1;exitX=1;exitY=0.5;exitDx=0;exitDy=0;entryX=0;entryY=0.75;entryDx=0;entryDy=0;" edge="1" parent="1" source="WyEUspupjIXbNaA2x39Q-2" target="WyEUspupjIXbNaA2x39Q-7">
          <mxGeometry relative="1" as="geometry" />
        </mxCell>
        <mxCell id="WyEUspupjIXbNaA2x39Q-60" value="Pasport_scans" style="shape=swimlane;childLayout=stackLayout;horizontal=1;startSize=20;horizontalStack=0;resizeParent=1;resizeLast=0;" vertex="1" parent="1">
          <mxGeometry x="1000" y="-140" width="220" height="100" as="geometry" />
        </mxCell>
        <mxCell id="WyEUspupjIXbNaA2x39Q-33" value="Employee_ID : INT (FK)" style="text;align=left;verticalAlign=top;" vertex="1" parent="WyEUspupjIXbNaA2x39Q-60">
          <mxGeometry y="20" width="220" height="20" as="geometry" />
        </mxCell>
        <mxCell id="WyEUspupjIXbNaA2x39Q-64" value="Scan_ID : INT (FK)" style="text;align=left;verticalAlign=top;" vertex="1" parent="WyEUspupjIXbNaA2x39Q-60">
          <mxGeometry y="40" width="220" height="20" as="geometry" />
        </mxCell>
        <mxCell id="WyEUspupjIXbNaA2x39Q-65" style="edgeStyle=orthogonalEdgeStyle;rounded=0;orthogonalLoop=1;jettySize=auto;html=1;exitX=0;exitY=0.5;exitDx=0;exitDy=0;entryX=1;entryY=0.75;entryDx=0;entryDy=0;" edge="1" parent="1" source="WyEUspupjIXbNaA2x39Q-32" target="WyEUspupjIXbNaA2x39Q-64">
          <mxGeometry relative="1" as="geometry" />
        </mxCell>
      </root>
    </mxGraphModel>
  </diagram>
</mxfile>
